<svg width="158" height="113" viewBox="0 0 158 113" fill="none" xmlns="http://www.w3.org/2000/svg">
<g filter="url(#filter0_d_37_5)">
<path d="M4 0L19.5455 89L4 16.7564V104.727H82.5455C82.5455 104.727 65.0909 104.509 70.5455 94.2545C76 84 34.5455 94.2545 34.5455 94.2545L18.1818 52.3636L34.5455 0H4Z" fill="#24663E"/>
<path d="M60.792 63.884V67.016H68.712V73.028H60.792V76.628H69.792V83H52.8V57.512H69.792V63.884H60.792ZM97.2479 83H89.2559L80.7959 70.184V83H72.8039V57.512H80.7959L89.2559 70.544V57.512H97.2479V83ZM111.479 57.512C114.143 57.512 116.471 58.052 118.463 59.132C120.479 60.212 122.027 61.712 123.107 63.632C124.187 65.552 124.727 67.736 124.727 70.184C124.727 72.608 124.187 74.792 123.107 76.736C122.027 78.68 120.479 80.216 118.463 81.344C116.471 82.448 114.143 83 111.479 83H100.859V57.512H111.479ZM110.759 75.872C112.559 75.872 113.987 75.38 115.043 74.396C116.099 73.412 116.627 72.008 116.627 70.184C116.627 68.36 116.099 66.956 115.043 65.972C113.987 64.988 112.559 64.496 110.759 64.496H108.851V75.872H110.759ZM140.033 83.252C137.633 83.252 135.425 82.688 133.409 81.56C131.417 80.432 129.833 78.872 128.657 76.88C127.481 74.888 126.893 72.644 126.893 70.148C126.893 67.652 127.481 65.408 128.657 63.416C129.833 61.424 131.417 59.876 133.409 58.772C135.425 57.644 137.633 57.08 140.033 57.08C142.433 57.08 144.629 57.644 146.621 58.772C148.613 59.876 150.185 61.424 151.337 63.416C152.513 65.408 153.101 67.652 153.101 70.148C153.101 72.644 152.513 74.888 151.337 76.88C150.185 78.872 148.601 80.432 146.585 81.56C144.593 82.688 142.409 83.252 140.033 83.252ZM140.033 75.8C141.617 75.8 142.841 75.296 143.705 74.288C144.569 73.256 145.001 71.876 145.001 70.148C145.001 68.396 144.569 67.016 143.705 66.008C142.841 64.976 141.617 64.46 140.033 64.46C138.425 64.46 137.189 64.976 136.325 66.008C135.461 67.016 135.029 68.396 135.029 70.148C135.029 71.876 135.461 73.256 136.325 74.288C137.189 75.296 138.425 75.8 140.033 75.8Z" fill="#24663E"/>
</g>
<defs>
<filter id="filter0_d_37_5" x="0" y="0" width="157.1" height="112.727" filterUnits="userSpaceOnUse" color-interpolation-filters="sRGB">
<feFlood flood-opacity="0" result="BackgroundImageFix"/>
<feColorMatrix in="SourceAlpha" type="matrix" values="0 0 0 0 0 0 0 0 0 0 0 0 0 0 0 0 0 0 127 0" result="hardAlpha"/>
<feOffset dy="4"/>
<feGaussianBlur stdDeviation="2"/>
<feComposite in2="hardAlpha" operator="out"/>
<feColorMatrix type="matrix" values="0 0 0 0 0 0 0 0 0 0 0 0 0 0 0 0 0 0 0.25 0"/>
<feBlend mode="normal" in2="BackgroundImageFix" result="effect1_dropShadow_37_5"/>
<feBlend mode="normal" in="SourceGraphic" in2="effect1_dropShadow_37_5" result="shape"/>
</filter>
</defs>
</svg>
